<?xml version="1.0" encoding="UTF-8" standalone="no"?>
<!DOCTYPE svg PUBLIC "-//W3C//DTD SVG 1.1//EN" "http://www.w3.org/Graphics/SVG/1.1/DTD/svg11.dtd">
<svg version="1.1" xmlns="http://www.w3.org/2000/svg" xmlns:xlink="http://www.w3.org/1999/xlink" preserveAspectRatio="xMidYMid meet" viewBox="0 0 520 595" width="4096" height="4096"><defs><path d="M0 0L520 0L520 595L0 595L0 0Z" id="a1AQjWmr1a"></path><path d="M10.01 120C127.88 120 201.55 120 231.02 120C238.12 120 244.45 115.54 246.84 108.86C247.26 107.68 248.31 104.73 250 100C130.58 100 55.94 100 26.08 100C19.63 100 14 104.38 12.4 110.64C12.08 111.88 11.28 115.01 10.01 120Z" id="c7n3MUhW8"></path><path d="M10.01 100C127.88 100 201.55 100 231.02 100C238.12 100 244.45 95.54 246.84 88.86C247.26 87.68 248.31 84.73 250 80C129.78 80 54.64 80 24.58 80C19.01 80 14.15 83.78 12.77 89.18C12.4 90.62 11.48 94.23 10.01 100Z" id="l3gWHebfZN"></path><path d="M10.01 80C127.88 80 201.55 80 231.02 80C238.12 80 244.45 75.54 246.84 68.86C247.26 67.68 248.32 64.73 250 60C129.78 60 54.64 60 24.58 60C19.01 60 14.15 63.78 12.77 69.18C12.4 70.62 11.48 74.23 10.01 80Z" id="ea7SKnkEM"></path><path d="M10.01 60C127.88 60 201.55 60 231.02 60C238.12 60 244.45 55.54 246.84 48.86C247.26 47.68 248.31 44.73 250 40C129.78 40 54.64 40 24.58 40C19.01 40 14.15 43.78 12.77 49.18C12.4 50.62 11.48 54.23 10.01 60Z" id="a6zSp8LmW"></path><path d="M10.01 235C127.88 235 201.55 235 231.02 235C238.12 235 244.45 230.54 246.84 223.85C247.26 222.67 248.31 219.72 250 215C129.78 215 54.64 215 24.58 215C19.01 215 14.15 218.78 12.77 224.17C12.4 225.62 11.48 229.23 10.01 235Z" id="c3hfEFgNv"></path><path d="M10.01 215C127.88 215 201.55 215 231.02 215C238.11 215 244.45 210.54 246.84 203.85C247.26 202.67 248.31 199.72 250 195C129.77 195 54.63 195 24.58 195C19.01 195 14.15 198.78 12.77 204.17C12.4 205.62 11.48 209.23 10.01 215Z" id="cB8yjQmQC"></path><path d="M10.01 195C127.88 195 201.55 195 231.02 195C238.12 195 244.45 190.54 246.84 183.85C247.26 182.67 248.31 179.72 250 175C129.78 175 54.64 175 24.58 175C19.01 175 14.15 178.78 12.77 184.17C12.4 185.62 11.48 189.23 10.01 195Z" id="g2cdU8aU2g"></path><path d="M10.01 175C127.88 175 201.55 175 231.02 175C238.12 175 244.45 170.54 246.84 163.85C247.26 162.67 248.31 159.72 250 155C129.78 155 54.64 155 24.58 155C19.01 155 14.15 158.78 12.77 164.17C12.4 165.62 11.48 169.23 10.01 175Z" id="b5jQrOU6u"></path><path d="M239.79 10C245.43 10 250 14.57 250 20.21C250 23.17 250 21.83 250 24.79C250 30.43 245.43 35 239.79 35C193.83 35 66.17 35 20.22 35C14.58 35 10.01 30.43 10.01 24.79C10.01 21.83 10.01 23.17 10.01 20.21C10.01 14.57 14.58 10 20.22 10C66.17 10 193.83 10 239.79 10Z" id="jbdcoy6Gq"></path><path d="M239.79 125C245.43 125 250 129.58 250 135.22C250 138.17 250 136.83 250 139.79C250 145.43 245.43 150 239.79 150C193.83 150 66.18 150 20.22 150C14.58 150 10.01 145.43 10.01 139.79C10.01 136.83 10.01 138.17 10.01 135.22C10.01 129.58 14.58 125 20.22 125C66.18 125 193.83 125 239.79 125Z" id="b4688SHyPW"></path><path d="M10.01 350C127.88 350 201.55 350 231.01 350C238.11 350 244.45 345.54 246.83 338.86C247.26 337.68 248.31 334.73 250 330C129.77 330 54.63 330 24.58 330C19.01 330 14.14 333.78 12.77 339.18C12.4 340.62 11.48 344.23 10.01 350Z" id="j1XVEZeaAa"></path><path d="M10.01 330C127.88 330 201.55 330 231.02 330C238.11 330 244.45 325.54 246.84 318.86C247.26 317.68 248.31 314.73 250 310C129.77 310 54.63 310 24.58 310C19.01 310 14.15 313.78 12.77 319.18C12.4 320.62 11.48 324.23 10.01 330Z" id="e9cr6bpKW"></path><path d="M10.01 310C127.88 310 201.55 310 231.02 310C238.12 310 244.45 305.54 246.84 298.86C247.26 297.68 248.31 294.73 250 290C129.78 290 54.64 290 24.58 290C19.01 290 14.15 293.78 12.77 299.18C12.4 300.62 11.48 304.23 10.01 310Z" id="cgmldaStx"></path><path d="M10.01 290C127.88 290 201.55 290 231.01 290C238.11 290 244.45 285.54 246.83 278.86C247.26 277.68 248.31 274.73 250 270C129.77 270 54.63 270 24.58 270C19.01 270 14.14 273.78 12.77 279.18C12.4 280.62 11.48 284.23 10.01 290Z" id="iXgaLooNs"></path><path d="M10 465C127.88 465 201.54 465 231.01 465C238.11 465 244.44 460.54 246.83 453.85C247.25 452.67 248.31 449.72 249.99 445C129.77 445 54.63 445 24.57 445C19 445 14.14 448.78 12.77 454.17C12.4 455.62 11.48 459.23 10 465Z" id="b2dvc3gEZ2"></path><path d="M10 445C127.87 445 201.54 445 231.01 445C238.11 445 244.44 440.54 246.83 433.85C247.25 432.67 248.31 429.72 249.99 425C129.77 425 54.63 425 24.57 425C19 425 14.14 428.78 12.76 434.17C12.4 435.62 11.47 439.23 10 445Z" id="b1XijQTuSr"></path><path d="M10.01 425C127.88 425 201.55 425 231.01 425C238.11 425 244.45 420.54 246.83 413.85C247.26 412.67 248.31 409.72 250 405C129.77 405 54.63 405 24.58 405C19.01 405 14.14 408.78 12.77 414.17C12.4 415.62 11.48 419.23 10.01 425Z" id="d7T3yfamov"></path><path d="M10.01 405C127.88 405 201.55 405 231.01 405C238.11 405 244.45 400.54 246.83 393.85C247.26 392.67 248.31 389.72 250 385C129.77 385 54.63 385 24.58 385C19.01 385 14.14 388.78 12.77 394.17C12.4 395.62 11.48 399.23 10.01 405Z" id="eAUk8Gi9"></path><path d="M239.78 240C245.42 240 250 244.57 250 250.21C250 253.17 250 251.83 250 254.79C250 260.43 245.42 265 239.78 265C193.83 265 66.17 265 20.22 265C14.58 265 10.01 260.43 10.01 254.79C10.01 251.83 10.01 253.17 10.01 250.21C10.01 244.57 14.58 240 20.22 240C66.17 240 193.83 240 239.78 240Z" id="a6z0hVR5K"></path><path d="M239.79 355C245.43 355 250 359.57 250 365.21C250 368.17 250 366.83 250 369.79C250 375.43 245.43 380 239.79 380C193.83 380 66.17 380 20.22 380C14.58 380 10.01 375.43 10.01 369.79C10.01 366.83 10.01 368.17 10.01 365.21C10.01 359.57 14.58 355 20.22 355C66.17 355 193.83 355 239.79 355Z" id="a2Oy109wNK"></path><path d="M10.01 580C127.88 580 201.55 580 231.02 580C238.12 580 244.45 575.54 246.84 568.85C247.26 567.67 248.31 564.72 250 560C129.78 560 54.64 560 24.58 560C19.01 560 14.15 563.78 12.77 569.18C12.4 570.62 11.48 574.23 10.01 580Z" id="b1KRZEIu47"></path><path d="M10.01 560C127.88 560 201.55 560 231.02 560C238.12 560 244.45 555.54 246.84 548.85C247.26 547.67 248.31 544.72 250 540C129.78 540 54.64 540 24.58 540C19.01 540 14.15 543.78 12.77 549.18C12.4 550.62 11.48 554.23 10.01 560Z" id="awgqK8nwa"></path><path d="M10.01 540C127.88 540 201.55 540 231.02 540C238.12 540 244.45 535.54 246.84 528.85C247.26 527.67 248.31 524.72 250 520C129.78 520 54.64 520 24.58 520C19.01 520 14.15 523.78 12.77 529.18C12.4 530.62 11.48 534.23 10.01 540Z" id="a3gm6vgziJ"></path><path d="M10.01 520C127.88 520 201.55 520 231.02 520C238.12 520 244.45 515.54 246.84 508.85C247.26 507.67 248.31 504.72 250 500C129.78 500 54.64 500 24.58 500C19.01 500 14.15 503.78 12.77 509.18C12.4 510.62 11.48 514.23 10.01 520Z" id="cvQQw5411"></path><path d="M239.79 470C245.43 470 250 474.57 250 480.21C250 483.17 250 481.83 250 484.79C250 490.43 245.43 495 239.79 495C193.83 495 66.17 495 20.22 495C14.58 495 10.01 490.43 10.01 484.79C10.01 481.83 10.01 483.17 10.01 480.21C10.01 474.57 14.58 470 20.22 470C66.17 470 193.83 470 239.79 470Z" id="adNWd8MdW"></path><path d="M510 40C392.13 40 318.46 40 288.99 40C281.89 40 275.56 44.47 273.17 51.15C272.75 52.33 271.7 55.28 270.01 60C389.43 60 464.07 60 493.93 60C500.38 60 506.01 55.63 507.61 49.37C507.93 48.12 508.73 45 510 40Z" id="bdrKtLqPA"></path><path d="M510 60C392.13 60 318.46 60 288.99 60C281.89 60 275.56 64.47 273.17 71.15C272.75 72.33 271.7 75.28 270.01 80C390.23 80 465.37 80 495.43 80C501 80 505.86 76.23 507.24 70.83C507.61 69.39 508.53 65.78 510 60Z" id="c5z4P1DOoK"></path><path d="M510 80C392.13 80 318.46 80 288.99 80C281.89 80 275.56 84.47 273.17 91.15C272.75 92.33 271.69 95.28 270.01 100C390.23 100 465.37 100 495.43 100C501 100 505.86 96.23 507.24 90.83C507.61 89.39 508.53 85.78 510 80Z" id="d3HzN7jXi"></path><path d="M510 100C392.13 100 318.46 100 288.99 100C281.89 100 275.56 104.47 273.17 111.15C272.75 112.33 271.7 115.28 270.01 120C390.23 120 465.37 120 495.43 120C501 120 505.86 116.23 507.24 110.83C507.61 109.39 508.53 105.78 510 100Z" id="b12LjYzMR7"></path><path d="M499.79 10C505.43 10 510 14.57 510 20.21C510 23.17 510 21.83 510 24.79C510 30.43 505.43 35 499.79 35C453.83 35 326.18 35 280.22 35C274.58 35 270.01 30.43 270.01 24.79C270.01 21.83 270.01 23.17 270.01 20.21C270.01 14.57 274.58 10 280.22 10C326.18 10 453.83 10 499.79 10Z" id="a57FX2VRL"></path><path d="M270.01 235.01C387.88 235.01 461.55 235.01 491.02 235.01C498.11 235.01 504.45 230.55 506.83 223.86C507.26 222.68 508.31 219.73 510 215.01C390.57 215.01 315.94 215.01 286.08 215.01C279.62 215.01 273.99 219.38 272.4 225.64C272.08 226.89 271.28 230.01 270.01 235.01Z" id="b13mo06LY4"></path><path d="M270.01 215.01C387.88 215.01 461.55 215.01 491.02 215.01C498.11 215.01 504.45 210.55 506.83 203.86C507.26 202.68 508.31 199.73 510 195.01C389.77 195.01 314.63 195.01 284.58 195.01C279.01 195.01 274.14 198.79 272.77 204.18C272.4 205.63 271.48 209.24 270.01 215.01Z" id="b2DikLrivd"></path><path d="M270.01 195.01C387.88 195.01 461.55 195.01 491.02 195.01C498.12 195.01 504.45 190.55 506.84 183.86C507.26 182.68 508.31 179.73 510 175.01C389.77 175.01 314.63 175.01 284.58 175.01C279.01 175.01 274.15 178.79 272.77 184.18C272.4 185.63 271.48 189.24 270.01 195.01Z" id="d9eT39Aki"></path><path d="M270.01 175.01C387.88 175.01 461.55 175.01 491.02 175.01C498.11 175.01 504.45 170.55 506.83 163.86C507.26 162.68 508.31 159.73 510 155.01C389.77 155.01 314.63 155.01 284.58 155.01C279.01 155.01 274.14 158.79 272.77 164.18C272.4 165.63 271.48 169.24 270.01 175.01Z" id="bCAkSB9pT"></path><path d="M499.78 125C505.42 125 510 129.58 510 135.22C510 138.17 510 136.83 510 139.79C510 145.43 505.42 150 499.78 150C453.83 150 326.17 150 280.22 150C274.58 150 270.01 145.43 270.01 139.79C270.01 136.83 270.01 138.17 270.01 135.22C270.01 129.58 274.58 125 280.22 125C326.17 125 453.83 125 499.78 125Z" id="a19ElYyG1A"></path><path d="M270.01 350C387.88 350 461.55 350 491.02 350C498.12 350 504.45 345.54 506.84 338.86C507.26 337.68 508.31 334.73 510 330C390.58 330 315.94 330 286.08 330C279.63 330 273.99 334.38 272.4 340.64C272.08 341.88 271.28 345.01 270.01 350Z" id="c8WGEqRVq"></path><path d="M270.01 330C387.88 330 461.55 330 491.02 330C498.12 330 504.45 325.54 506.84 318.86C507.26 317.68 508.31 314.73 510 310C389.77 310 314.63 310 284.58 310C279.01 310 274.15 313.78 272.77 319.18C272.4 320.62 271.48 324.23 270.01 330Z" id="dhkByYuf5"></path><path d="M270.01 310C387.88 310 461.55 310 491.02 310C498.12 310 504.45 305.54 506.84 298.86C507.26 297.68 508.31 294.73 510 290C389.78 290 314.64 290 284.58 290C279.01 290 274.15 293.78 272.77 299.18C272.4 300.62 271.48 304.23 270.01 310Z" id="c17vZ8apjw"></path><path d="M270.01 290C387.88 290 461.55 290 491.02 290C498.12 290 504.45 285.54 506.84 278.86C507.26 277.68 508.31 274.73 510 270C389.77 270 314.63 270 284.58 270C279.01 270 274.15 273.78 272.77 279.18C272.4 280.62 271.48 284.23 270.01 290Z" id="h1CWefvPC"></path><path d="M499.79 240C505.43 240 510 244.57 510 250.21C510 253.17 510 251.83 510 254.79C510 260.43 505.43 265 499.79 265C453.83 265 326.18 265 280.22 265C274.58 265 270.01 260.43 270.01 254.79C270.01 251.83 270.01 253.17 270.01 250.21C270.01 244.57 274.58 240 280.22 240C326.18 240 453.83 240 499.79 240Z" id="bivjgApDk"></path><path d="M270.01 465C387.88 465 461.55 465 491.02 465C498.11 465 504.45 460.54 506.83 453.85C507.26 452.67 508.31 449.72 510 445C390.57 445 315.94 445 286.08 445C279.62 445 273.99 449.37 272.4 455.63C272.08 456.88 271.28 460 270.01 465Z" id="c1zVyw55Fs"></path><path d="M270.01 445C387.88 445 461.55 445 491.02 445C498.11 445 504.45 440.54 506.83 433.85C507.26 432.67 508.31 429.72 510 425C389.77 425 314.63 425 284.58 425C279.01 425 274.14 428.78 272.77 434.17C272.4 435.62 271.48 439.23 270.01 445Z" id="b6iNujrkPS"></path><path d="M270.01 425C387.88 425 461.55 425 491.02 425C498.12 425 504.45 420.54 506.84 413.85C507.26 412.67 508.31 409.72 510 405C389.77 405 314.63 405 284.58 405C279.01 405 274.15 408.78 272.77 414.17C272.4 415.62 271.48 419.23 270.01 425Z" id="g2XjJnYqv"></path><path d="M270.01 405C387.88 405 461.55 405 491.02 405C498.11 405 504.45 400.54 506.83 393.85C507.26 392.67 508.31 389.72 510 385C389.77 385 314.63 385 284.58 385C279.01 385 274.14 388.78 272.77 394.17C272.4 395.62 271.48 399.23 270.01 405Z" id="amygtwvsg"></path><path d="M499.78 354.99C505.42 354.99 510 359.57 510 365.21C510 368.16 510 366.82 510 369.78C510 375.42 505.42 379.99 499.78 379.99C453.83 379.99 326.17 379.99 280.22 379.99C274.58 379.99 270.01 375.42 270.01 369.78C270.01 366.82 270.01 368.16 270.01 365.21C270.01 359.57 274.58 354.99 280.22 354.99C326.17 354.99 453.83 354.99 499.78 354.99Z" id="c3CzvGzFc4"></path><path d="M270.01 580C387.88 580 461.55 580 491.02 580C498.11 580 504.45 575.54 506.83 568.85C507.26 567.67 508.31 564.72 510 560C390.57 560 315.94 560 286.08 560C279.62 560 273.99 564.38 272.4 570.63C272.08 571.88 271.28 575.01 270.01 580Z" id="a3T4odsqP"></path><path d="M270.01 560C387.88 560 461.55 560 491.02 560C498.11 560 504.45 555.54 506.83 548.85C507.26 547.67 508.31 544.72 510 540C389.77 540 314.63 540 284.58 540C279.01 540 274.14 543.78 272.77 549.18C272.4 550.62 271.48 554.23 270.01 560Z" id="d2ffVO40N"></path><path d="M270.01 540C387.88 540 461.55 540 491.02 540C498.12 540 504.45 535.54 506.84 528.85C507.26 527.67 508.31 524.72 510 520C389.77 520 314.63 520 284.58 520C279.01 520 274.15 523.78 272.77 529.18C272.4 530.62 271.48 534.23 270.01 540Z" id="c1iLOM1iW4"></path><path d="M270.01 520C387.88 520 461.55 520 491.02 520C498.11 520 504.45 515.54 506.83 508.85C507.26 507.67 508.31 504.72 510 500C389.77 500 314.63 500 284.58 500C279.01 500 274.14 503.78 272.77 509.18C272.4 510.62 271.48 514.23 270.01 520Z" id="i3rVob1LsP"></path><path d="M499.78 470C505.42 470 510 474.57 510 480.21C510 483.17 510 481.83 510 484.79C510 490.43 505.42 495 499.78 495C453.83 495 326.17 495 280.22 495C274.58 495 270.01 490.43 270.01 484.79C270.01 481.83 270.01 483.17 270.01 480.21C270.01 474.57 274.58 470 280.22 470C326.17 470 453.83 470 499.78 470Z" id="bpR0oVobk"></path></defs><g><g><g><use xlink:href="#a1AQjWmr1a" opacity="1" fill="#080808" fill-opacity="1"></use></g><g><g><use xlink:href="#c7n3MUhW8" opacity="1" fill="#ba74d5" fill-opacity="1"></use><g><use xlink:href="#c7n3MUhW8" opacity="1" fill-opacity="0" stroke="#a152bf" stroke-width="2" stroke-opacity="1"></use></g></g><g><use xlink:href="#l3gWHebfZN" opacity="1" fill="#ba74d5" fill-opacity="1"></use><g><use xlink:href="#l3gWHebfZN" opacity="1" fill-opacity="0" stroke="#a152bf" stroke-width="2" stroke-opacity="1"></use></g></g><g><use xlink:href="#ea7SKnkEM" opacity="1" fill="#ba74d5" fill-opacity="1"></use><g><use xlink:href="#ea7SKnkEM" opacity="1" fill-opacity="0" stroke="#a152bf" stroke-width="2" stroke-opacity="1"></use></g></g><g><use xlink:href="#a6zSp8LmW" opacity="1" fill="#ba74d5" fill-opacity="1"></use><g><use xlink:href="#a6zSp8LmW" opacity="1" fill-opacity="0" stroke="#a152bf" stroke-width="2" stroke-opacity="1"></use></g></g></g><g><g><use xlink:href="#c3hfEFgNv" opacity="1" fill="#e06074" fill-opacity="1"></use><g><use xlink:href="#c3hfEFgNv" opacity="1" fill-opacity="0" stroke="#c83742" stroke-width="2" stroke-opacity="1"></use></g></g><g><use xlink:href="#cB8yjQmQC" opacity="1" fill="#e06074" fill-opacity="1"></use><g><use xlink:href="#cB8yjQmQC" opacity="1" fill-opacity="0" stroke="#c83742" stroke-width="2" stroke-opacity="1"></use></g></g><g><use xlink:href="#g2cdU8aU2g" opacity="1" fill="#e06074" fill-opacity="1"></use><g><use xlink:href="#g2cdU8aU2g" opacity="1" fill-opacity="0" stroke="#c83742" stroke-width="2" stroke-opacity="1"></use></g></g><g><use xlink:href="#b5jQrOU6u" opacity="1" fill="#e06074" fill-opacity="1"></use><g><use xlink:href="#b5jQrOU6u" opacity="1" fill-opacity="0" stroke="#c83742" stroke-width="2" stroke-opacity="1"></use></g></g></g><g><use xlink:href="#jbdcoy6Gq" opacity="1" fill="#77329e" fill-opacity="1"></use></g><g><use xlink:href="#b4688SHyPW" opacity="1" fill="#aa2424" fill-opacity="1"></use></g><g><g><use xlink:href="#j1XVEZeaAa" opacity="1" fill="#60afcc" fill-opacity="1"></use><g><use xlink:href="#j1XVEZeaAa" opacity="1" fill-opacity="0" stroke="#267c89" stroke-width="2" stroke-opacity="1"></use></g></g><g><use xlink:href="#e9cr6bpKW" opacity="1" fill="#60afcc" fill-opacity="1"></use><g><use xlink:href="#e9cr6bpKW" opacity="1" fill-opacity="0" stroke="#267c89" stroke-width="2" stroke-opacity="1"></use></g></g><g><use xlink:href="#cgmldaStx" opacity="1" fill="#60afcc" fill-opacity="1"></use><g><use xlink:href="#cgmldaStx" opacity="1" fill-opacity="0" stroke="#267c89" stroke-width="2" stroke-opacity="1"></use></g></g><g><use xlink:href="#iXgaLooNs" opacity="1" fill="#60afcc" fill-opacity="1"></use><g><use xlink:href="#iXgaLooNs" opacity="1" fill-opacity="0" stroke="#267c89" stroke-width="2" stroke-opacity="1"></use></g></g></g><g><g><use xlink:href="#b2dvc3gEZ2" opacity="1" fill="#55cf53" fill-opacity="1"></use><g><use xlink:href="#b2dvc3gEZ2" opacity="1" fill-opacity="0" stroke="#398e37" stroke-width="2" stroke-opacity="1"></use></g></g><g><use xlink:href="#b1XijQTuSr" opacity="1" fill="#55cf53" fill-opacity="1"></use><g><use xlink:href="#b1XijQTuSr" opacity="1" fill-opacity="0" stroke="#398e37" stroke-width="2" stroke-opacity="1"></use></g></g><g><use xlink:href="#d7T3yfamov" opacity="1" fill="#55cf53" fill-opacity="1"></use><g><use xlink:href="#d7T3yfamov" opacity="1" fill-opacity="0" stroke="#398e37" stroke-width="2" stroke-opacity="1"></use></g></g><g><use xlink:href="#eAUk8Gi9" opacity="1" fill="#55cf53" fill-opacity="1"></use><g><use xlink:href="#eAUk8Gi9" opacity="1" fill-opacity="0" stroke="#398e37" stroke-width="2" stroke-opacity="1"></use></g></g></g><g><use xlink:href="#a6z0hVR5K" opacity="1" fill="#1b7b89" fill-opacity="1"></use></g><g><use xlink:href="#a2Oy109wNK" opacity="1" fill="#338931" fill-opacity="1"></use></g><g><g><use xlink:href="#b1KRZEIu47" opacity="1" fill="#e0d53d" fill-opacity="1"></use><g><use xlink:href="#b1KRZEIu47" opacity="1" fill-opacity="0" stroke="#b0a724" stroke-width="2" stroke-opacity="1"></use></g></g><g><use xlink:href="#awgqK8nwa" opacity="1" fill="#e0d53d" fill-opacity="1"></use><g><use xlink:href="#awgqK8nwa" opacity="1" fill-opacity="0" stroke="#b0a724" stroke-width="2" stroke-opacity="1"></use></g></g><g><use xlink:href="#a3gm6vgziJ" opacity="1" fill="#e0d53d" fill-opacity="1"></use><g><use xlink:href="#a3gm6vgziJ" opacity="1" fill-opacity="0" stroke="#b0a724" stroke-width="2" stroke-opacity="1"></use></g></g><g><use xlink:href="#cvQQw5411" opacity="1" fill="#e0d53d" fill-opacity="1"></use><g><use xlink:href="#cvQQw5411" opacity="1" fill-opacity="0" stroke="#b0a724" stroke-width="2" stroke-opacity="1"></use></g></g></g><g><use xlink:href="#adNWd8MdW" opacity="1" fill="#bdb429" fill-opacity="1"></use><g><use xlink:href="#adNWd8MdW" opacity="1" fill-opacity="0" stroke="#000000" stroke-width="0" stroke-opacity="1"></use></g></g><g><g><use xlink:href="#bdrKtLqPA" opacity="1" fill="#6e6e6e" fill-opacity="1"></use><g><use xlink:href="#bdrKtLqPA" opacity="1" fill-opacity="0" stroke="#515151" stroke-width="2" stroke-opacity="1"></use></g></g><g><use xlink:href="#c5z4P1DOoK" opacity="1" fill="#6e6e6e" fill-opacity="1"></use><g><use xlink:href="#c5z4P1DOoK" opacity="1" fill-opacity="0" stroke="#515151" stroke-width="2" stroke-opacity="1"></use></g></g><g><use xlink:href="#d3HzN7jXi" opacity="1" fill="#6e6e6e" fill-opacity="1"></use><g><use xlink:href="#d3HzN7jXi" opacity="1" fill-opacity="0" stroke="#515151" stroke-width="2" stroke-opacity="1"></use></g></g><g><use xlink:href="#b12LjYzMR7" opacity="1" fill="#6e6e6e" fill-opacity="1"></use><g><use xlink:href="#b12LjYzMR7" opacity="1" fill-opacity="0" stroke="#515151" stroke-width="2" stroke-opacity="1"></use></g></g></g><g><use xlink:href="#a57FX2VRL" opacity="1" fill="#515151" fill-opacity="1"></use></g><g><g><use xlink:href="#b13mo06LY4" opacity="1" fill="#6e6e6e" fill-opacity="1"></use><g><use xlink:href="#b13mo06LY4" opacity="1" fill-opacity="0" stroke="#515151" stroke-width="2" stroke-opacity="1"></use></g></g><g><use xlink:href="#b2DikLrivd" opacity="1" fill="#6e6e6e" fill-opacity="1"></use><g><use xlink:href="#b2DikLrivd" opacity="1" fill-opacity="0" stroke="#515151" stroke-width="2" stroke-opacity="1"></use></g></g><g><use xlink:href="#d9eT39Aki" opacity="1" fill="#6e6e6e" fill-opacity="1"></use><g><use xlink:href="#d9eT39Aki" opacity="1" fill-opacity="0" stroke="#515151" stroke-width="2" stroke-opacity="1"></use></g></g><g><use xlink:href="#bCAkSB9pT" opacity="1" fill="#6e6e6e" fill-opacity="1"></use><g><use xlink:href="#bCAkSB9pT" opacity="1" fill-opacity="0" stroke="#515151" stroke-width="2" stroke-opacity="1"></use></g></g></g><g><use xlink:href="#a19ElYyG1A" opacity="1" fill="#515151" fill-opacity="1"></use></g><g><g><use xlink:href="#c8WGEqRVq" opacity="1" fill="#6e6e6e" fill-opacity="1"></use><g><use xlink:href="#c8WGEqRVq" opacity="1" fill-opacity="0" stroke="#515151" stroke-width="2" stroke-opacity="1"></use></g></g><g><use xlink:href="#dhkByYuf5" opacity="1" fill="#6e6e6e" fill-opacity="1"></use><g><use xlink:href="#dhkByYuf5" opacity="1" fill-opacity="0" stroke="#515151" stroke-width="2" stroke-opacity="1"></use></g></g><g><use xlink:href="#c17vZ8apjw" opacity="1" fill="#6e6e6e" fill-opacity="1"></use><g><use xlink:href="#c17vZ8apjw" opacity="1" fill-opacity="0" stroke="#515151" stroke-width="2" stroke-opacity="1"></use></g></g><g><use xlink:href="#h1CWefvPC" opacity="1" fill="#6e6e6e" fill-opacity="1"></use><g><use xlink:href="#h1CWefvPC" opacity="1" fill-opacity="0" stroke="#515151" stroke-width="2" stroke-opacity="1"></use></g></g></g><g><use xlink:href="#bivjgApDk" opacity="1" fill="#515151" fill-opacity="1"></use></g><g><g><use xlink:href="#c1zVyw55Fs" opacity="1" fill="#6e6e6e" fill-opacity="1"></use><g><use xlink:href="#c1zVyw55Fs" opacity="1" fill-opacity="0" stroke="#515151" stroke-width="2" stroke-opacity="1"></use></g></g><g><use xlink:href="#b6iNujrkPS" opacity="1" fill="#6e6e6e" fill-opacity="1"></use><g><use xlink:href="#b6iNujrkPS" opacity="1" fill-opacity="0" stroke="#515151" stroke-width="2" stroke-opacity="1"></use></g></g><g><use xlink:href="#g2XjJnYqv" opacity="1" fill="#6e6e6e" fill-opacity="1"></use><g><use xlink:href="#g2XjJnYqv" opacity="1" fill-opacity="0" stroke="#515151" stroke-width="2" stroke-opacity="1"></use></g></g><g><use xlink:href="#amygtwvsg" opacity="1" fill="#6e6e6e" fill-opacity="1"></use><g><use xlink:href="#amygtwvsg" opacity="1" fill-opacity="0" stroke="#515151" stroke-width="2" stroke-opacity="1"></use></g></g></g><g><use xlink:href="#c3CzvGzFc4" opacity="1" fill="#515151" fill-opacity="1"></use></g><g><g><use xlink:href="#a3T4odsqP" opacity="1" fill="#6e6e6e" fill-opacity="1"></use><g><use xlink:href="#a3T4odsqP" opacity="1" fill-opacity="0" stroke="#515151" stroke-width="2" stroke-opacity="1"></use></g></g><g><use xlink:href="#d2ffVO40N" opacity="1" fill="#6e6e6e" fill-opacity="1"></use><g><use xlink:href="#d2ffVO40N" opacity="1" fill-opacity="0" stroke="#515151" stroke-width="2" stroke-opacity="1"></use></g></g><g><use xlink:href="#c1iLOM1iW4" opacity="1" fill="#6e6e6e" fill-opacity="1"></use><g><use xlink:href="#c1iLOM1iW4" opacity="1" fill-opacity="0" stroke="#515151" stroke-width="2" stroke-opacity="1"></use></g></g><g><use xlink:href="#i3rVob1LsP" opacity="1" fill="#6e6e6e" fill-opacity="1"></use><g><use xlink:href="#i3rVob1LsP" opacity="1" fill-opacity="0" stroke="#515151" stroke-width="2" stroke-opacity="1"></use></g></g></g><g><use xlink:href="#bpR0oVobk" opacity="1" fill="#515151" fill-opacity="1"></use></g></g></g></svg>